HIERARCHY
ROOT Hips
{
	OFFSET 0.00 0.00 0.00
	CHANNELS 6 Xposition Yposition Zposition Xrotation Yrotation Zrotation
	JOINT Spine
	{
		OFFSET 0.00000 6.86429 0.00000
		CHANNELS 3 Xrotation Yrotation Zrotation
		JOINT Head
		{
			OFFSET 0.00000 15.39383 0.00000
			CHANNELS 3 Xrotation Yrotation Zrotation
			End Site
			{
				OFFSET 0.00000 4.52755 0.00000
			}
		}
		JOINT LeftShoulder
		{
			OFFSET 0.00000 9.31483 0.00000
			CHANNELS 3 Xrotation Yrotation Zrotation
			JOINT LeftArm
			{
				OFFSET 8.27540 0.00000 0.00000
				CHANNELS 3 Xrotation Yrotation Zrotation
				JOINT LeftForeArm
				{
					OFFSET 12.00220 0.00000 0.00000
					CHANNELS 3 Yrotation Zrotation Xrotation
					JOINT LeftHand
					{
						OFFSET 10.14463 0.00000 0.00000
						CHANNELS 3 Xrotation Yrotation Zrotation
						JOINT LeftHandThumb1
						{
							OFFSET 0.00000 0.00000 0.00000
							CHANNELS 3 Xrotation Zrotation Yrotation
							End Site
							{
								OFFSET 0.00000 0.00000 3.93700
							}
						}
						End Site
						{
							OFFSET 3.93700 0.00000 0.00000
						}
					}
				}
			}
		}
		JOINT RightShoulder
		{
			OFFSET 0.00000 9.31483 0.00000
			CHANNELS 3 Xrotation Yrotation Zrotation
			JOINT RightArm
			{
				OFFSET -8.27540 0.00000 0.00000
				CHANNELS 3 Xrotation Yrotation Zrotation
				JOINT RightForeArm
				{
					OFFSET -12.00220 0.00000 0.00000
					CHANNELS 3 Yrotation Zrotation Xrotation
					JOINT RightHand
					{
						OFFSET -10.14463 0.00000 0.00000
						CHANNELS 3 Xrotation Yrotation Zrotation
						JOINT RightHandThumb1
						{
							OFFSET 0.00000 0.00000 0.00000
							CHANNELS 3 Xrotation Zrotation Yrotation
							End Site
							{
								OFFSET 0.00000 0.00000 3.93700
							}
						}
						End Site
						{
							OFFSET -3.93700 0.00000 0.00000
						}
					}
				}
			}
		}
	}
	JOINT LeftUpLeg
	{
		OFFSET 4.11738 0.00000 0.00000
		CHANNELS 3 Xrotation Yrotation Zrotation
		JOINT LeftLeg
		{
			OFFSET 0.00000 -19.39432 0.00000
			CHANNELS 3 Xrotation Yrotation Zrotation
			JOINT LeftFoot
			{
				OFFSET 0.00000 -17.60956 0.00000
				CHANNELS 3 Xrotation Yrotation Zrotation
				JOINT LeftToeBase
				{
					OFFSET 0.00000 -1.57501 5.87804
					CHANNELS 3 Xrotation Yrotation Zrotation
					End Site
					{
						OFFSET 0.00000 0.00000 2.95275
					}
				}
			}
		}
	}
	JOINT RightUpLeg
	{
		OFFSET -4.11738 0.00000 0.00000
		CHANNELS 3 Xrotation Yrotation Zrotation
		JOINT RightLeg
		{
			OFFSET 0.00000 -19.39432 0.00000
			CHANNELS 3 Xrotation Yrotation Zrotation
			JOINT RightFoot
			{
				OFFSET 0.00000 -17.60956 0.00000
				CHANNELS 3 Xrotation Yrotation Zrotation
				JOINT RightToeBase
				{
					OFFSET 0.00000 -1.57501 5.87804
					CHANNELS 3 Xrotation Yrotation Zrotation
					End Site
					{
						OFFSET 0.00000 0.00000 2.95275
					}
				}
			}
		}
	}
}
MOTION
Frames:	23
Frame Time: 0.008333
3.3050 39.6094 -9.0725 0.8445 -3.7849 -3.0681 5.8996 6.3309 3.3693 8.1117 5.0720 -6.0076 -2.2222 11.6989 25.1085 -20.1925 3.4790 -47.2319 -9.0693 -0.0000 28.0518 -0.0265 5.7426 0.2653 32.8623 0.0000 24.3270 13.0944 -24.2227 -21.2831 -37.7741 -4.4544 40.5502 13.5169 0.0000 10.2569 -1.2798 9.9433 7.3719 33.1476 -0.0000 -26.2537 0.6076 3.1199 1.0654 5.4875 -0.0000 -0.0000 -12.7550 25.3016 -5.4890 12.5899 -0.0000 -0.0000 1.3212 -7.6620 0.3386 4.4577 -0.0000 -0.0000 -7.0184 -10.9500 12.4455 11.4708 -0.0000 -0.0000
3.3053 39.6094 -9.0721 0.8415 -3.7909 -3.0671 5.9081 6.3277 3.3656 8.1059 5.0381 -5.9923 -2.2318 11.7089 25.1002 -20.1813 3.4555 -47.2441 -9.0940 0.0000 28.0899 -0.0298 5.7751 0.2965 32.8623 0.0000 24.3270 13.0863 -24.2142 -21.2737 -37.6464 -4.4067 40.5768 13.6451 0.0000 10.4165 -1.2762 9.9371 7.3557 33.1476 -0.0000 -26.2537 0.6101 3.1338 1.0639 5.4905 -0.0000 -0.0000 -12.7543 25.2949 -5.4786 12.5277 -0.0000 -0.0000 1.3203 -7.6510 0.3366 4.4652 -0.0000 -0.0000 -7.0201 -10.9572 12.4564 11.4680 -0.0000 -0.0000
3.3059 39.6093 -9.0723 0.8439 -3.7985 -3.0645 5.9142 6.3255 3.3588 8.1061 5.0182 -5.9940 -2.2657 11.7098 25.1001 -20.1170 3.4037 -47.2536 -9.1128 0.0000 28.0668 -0.0319 5.7611 0.3182 32.8623 0.0000 24.3270 13.1016 -24.2237 -21.2483 -37.5489 -4.3415 40.6070 13.7615 0.0000 10.5110 -1.2830 9.9334 7.3976 33.1476 -0.0000 -26.2537 0.6074 3.1423 1.0590 5.4908 -0.0000 -0.0000 -12.7601 25.3020 -5.4840 12.5923 -0.0000 -0.0000 1.3142 -7.6434 0.3329 4.4690 -0.0000 -0.0000 -7.0197 -10.9611 12.4644 11.4377 -0.0000 -0.0000
3.3065 39.6091 -9.0719 0.8380 -3.8039 -3.0641 5.9218 6.3190 3.3592 8.1123 4.9989 -5.9719 -2.2543 11.7082 25.0840 -20.1270 3.4184 -47.2503 -9.1218 -0.0000 28.0878 -0.0362 5.7865 0.3593 32.8623 0.0000 24.3270 13.0860 -24.1966 -21.2491 -37.2906 -4.2194 40.6234 13.9064 0.0000 10.4470 -1.2672 9.8663 7.3557 33.1476 -0.0000 -26.2537 0.6159 3.1536 1.0577 5.4852 -0.0000 -0.0000 -12.7559 25.3029 -5.4918 12.5670 -0.0000 -0.0000 1.3196 -7.6558 0.3304 4.4687 -0.0000 -0.0000 -7.0208 -10.9380 12.4472 11.4545 -0.0000 -0.0000
3.3066 39.6091 -9.0717 0.8373 -3.8118 -3.0661 5.9258 6.3215 3.3551 8.1281 4.9683 -5.9636 -2.2188 11.7269 25.0916 -20.1567 3.4260 -47.2872 -9.1554 -0.0000 28.1675 -0.0450 5.7727 0.4474 32.8623 0.0000 24.3270 13.1514 -24.2359 -21.2263 -37.4161 -4.3051 40.7081 14.0031 -0.0000 10.8225 -1.2570 9.8313 7.3227 33.1476 -0.0000 -26.2537 0.6176 3.1537 1.0595 5.4876 -0.0000 -0.0000 -12.7614 25.3161 -5.5016 12.5978 -0.0000 -0.0000 1.3191 -7.6476 0.3314 4.4692 -0.0000 -0.0000 -7.0212 -10.9325 12.4468 11.4743 -0.0000 -0.0000
3.3078 39.6091 -9.0719 0.8375 -3.8285 -3.0646 5.9261 6.3195 3.3606 8.1395 4.9470 -5.9626 -2.2084 11.7376 25.0680 -20.1653 3.4263 -47.2870 -9.1724 -0.0000 28.1800 -0.0496 5.8097 0.4898 32.8623 0.0000 24.3270 13.1734 -24.2341 -21.2346 -37.2912 -4.2637 40.7702 14.1277 0.0000 10.9667 -1.2715 9.8980 7.3577 33.1476 -0.0000 -26.2537 0.6155 3.1824 1.0560 5.4919 -0.0000 -0.0000 -12.7592 25.3000 -5.5007 12.5783 -0.0000 -0.0000 1.3130 -7.6357 0.3269 4.4735 -0.0000 -0.0000 -7.0191 -10.9280 12.4653 11.4723 -0.0000 -0.0000
3.3084 39.6088 -9.0717 0.8348 -3.8403 -3.0631 5.9359 6.3183 3.3578 8.1415 4.9299 -5.9612 -2.2489 11.7368 25.0615 -20.1425 3.4213 -47.2877 -9.1843 0.0000 28.1834 -0.0523 5.7668 0.5202 32.8623 0.0000 24.3270 13.1577 -24.2070 -21.2029 -36.9515 -4.0483 40.7637 14.2805 0.0000 10.9118 -1.2016 9.7959 7.0278 33.1476 -0.0000 -26.2537 0.6211 3.1924 1.0528 5.4888 -0.0000 -0.0000 -12.7622 25.3015 -5.4851 12.5513 -0.0000 -0.0000 1.3153 -7.6054 0.3244 4.4712 -0.0000 -0.0000 -7.0191 -10.9475 12.4763 11.4567 -0.0000 -0.0000
3.3096 39.6085 -9.0713 0.8333 -3.8548 -3.0639 5.9385 6.3196 3.3603 8.1620 4.9235 -5.9608 -2.2469 11.7375 25.0519 -20.1411 3.4314 -47.2928 -9.2078 -0.0000 28.1714 -0.0571 5.7520 0.5699 32.8623 0.0000 24.3270 13.1854 -24.2163 -21.2030 -36.7854 -3.9479 40.8303 14.3960 0.0000 10.9916 -1.1844 9.6911 7.0016 33.1476 -0.0000 -26.2537 0.6265 3.1999 1.0515 5.4839 -0.0000 -0.0000 -12.7690 25.3120 -5.4734 12.5900 -0.0000 -0.0000 1.3115 -7.6050 0.3209 4.4772 -0.0000 -0.0000 -7.0208 -10.9223 12.4566 11.4579 -0.0000 -0.0000
3.3103 39.6084 -9.0717 0.8331 -3.8692 -3.0639 5.9479 6.3150 3.3580 8.1652 4.9015 -5.9512 -2.2646 11.7438 25.0470 -20.1318 3.4375 -47.2940 -9.2402 0.0000 28.1515 -0.0567 5.7392 0.5674 32.8623 0.0000 24.3270 13.1748 -24.1966 -21.1794 -36.5697 -3.7893 40.8488 14.4593 0.0000 11.0481 -1.2532 9.8696 7.2731 33.1476 -0.0000 -26.2537 0.6241 3.2074 1.0494 5.4898 -0.0000 -0.0000 -12.7759 25.3261 -5.4856 12.6078 -0.0000 -0.0000 1.3082 -7.5905 0.3194 4.4770 -0.0000 -0.0000 -7.0194 -10.9218 12.4572 11.4606 -0.0000 -0.0000
3.3113 39.6085 -9.0717 0.8306 -3.8874 -3.0667 5.9529 6.3151 3.3657 8.1830 4.8961 -5.9567 -2.2528 11.7648 25.0295 -20.1610 3.4315 -47.2973 -9.2505 0.0000 28.1444 -0.0589 5.7263 0.5905 32.8623 0.0000 24.3270 13.2060 -24.2031 -21.1645 -36.4044 -3.6257 40.9072 14.5243 0.0000 11.2069 -1.2369 9.8462 7.1963 33.1476 -0.0000 -26.2537 0.6256 3.2352 1.0510 5.4934 -0.0000 -0.0000 -12.7792 25.3200 -5.4923 12.6122 -0.0000 -0.0000 1.3077 -7.5658 0.3189 4.4766 -0.0000 -0.0000 -7.0157 -10.9254 12.4845 11.4696 -0.0000 -0.0000
3.3124 39.6081 -9.0693 0.8226 -3.9137 -3.0681 5.9569 6.3303 3.3660 8.2109 4.8792 -5.9495 -2.2597 11.7647 25.0262 -20.1656 3.4393 -47.3026 -9.2823 -0.0000 28.1288 -0.0574 5.7554 0.5719 32.8623 0.0000 24.3270 13.2404 -24.2119 -21.1392 -36.1200 -3.3966 40.9502 14.6246 -0.0000 11.2775 -1.2256 9.8081 7.1582 33.1476 -0.0000 -26.2537 0.6405 3.2629 1.0481 5.4896 -0.0000 -0.0000 -12.7875 25.3206 -5.4742 12.6055 -0.0000 -0.0000 1.3157 -7.5346 0.3152 4.4761 -0.0000 -0.0000 -7.0197 -10.9243 12.4954 11.4917 -0.0000 -0.0000
3.3133 39.6084 -9.0697 0.8193 -3.9364 -3.0687 5.9609 6.3429 3.3684 8.2515 4.8554 -5.9618 -2.2272 11.7683 25.0149 -20.1900 3.4304 -47.3082 -9.2954 0.0000 28.1247 -0.0592 5.7624 0.5892 32.8623 0.0000 24.3270 13.2655 -24.2007 -21.1247 -35.9191 -3.2308 40.9938 14.6500 0.0000 11.4800 -1.2283 9.9743 7.0568 33.1476 -0.0000 -26.2537 0.6439 3.2683 1.0471 5.4928 -0.0000 -0.0000 -12.7879 25.3368 -5.4734 12.5973 -0.0000 -0.0000 1.3122 -7.5231 0.3116 4.4795 -0.0000 -0.0000 -7.0136 -10.9025 12.5001 11.4860 -0.0000 -0.0000
3.3140 39.6084 -9.0705 0.8145 -3.9630 -3.0731 5.9742 6.3492 3.3735 8.2593 4.8440 -5.9642 -2.2387 11.7640 25.0093 -20.1767 3.4316 -47.3107 -9.3163 -0.0000 28.1174 -0.0644 5.7677 0.6412 32.8623 0.0000 24.3270 13.2956 -24.2038 -21.1104 -35.6882 -3.0308 41.0549 14.7174 -0.0000 11.7293 -1.2577 9.9339 7.2528 33.1476 -0.0000 -26.2537 0.6458 3.2886 1.0495 5.4981 -0.0000 -0.0000 -12.7907 25.3481 -5.4789 12.5806 -0.0000 -0.0000 1.3097 -7.4966 0.3144 4.4830 -0.0000 -0.0000 -7.0079 -10.8992 12.4898 11.4673 -0.0000 -0.0000
3.3153 39.6087 -9.0707 0.8064 -3.9938 -3.0690 5.9933 6.3640 3.3723 8.2716 4.8363 -5.9869 -2.2474 11.7640 24.9894 -20.1903 3.4293 -47.2925 -9.3397 0.0000 27.9861 -0.0572 5.7711 0.5691 32.8623 0.0000 24.3270 13.3285 -24.2086 -21.0703 -35.4029 -2.7654 41.0882 14.7920 0.0000 11.6576 -1.2119 9.9471 6.9822 33.1476 -0.0000 -26.2537 0.6538 3.3097 1.0430 5.5036 -0.0000 -0.0000 -12.7958 25.3573 -5.4880 12.6007 -0.0000 -0.0000 1.3111 -7.4590 0.3061 4.4846 -0.0000 -0.0000 -7.0006 -10.9044 12.5138 11.4742 -0.0000 -0.0000
3.3169 39.6089 -9.0717 0.8008 -4.0265 -3.0678 6.0107 6.3768 3.3704 8.2814 4.8277 -5.9906 -2.2361 11.7710 24.9907 -20.2173 3.4520 -47.3176 -9.3440 0.0000 28.1110 -0.0672 5.7515 0.6707 32.8623 0.0000 24.3270 13.3664 -24.2056 -21.0559 -35.1605 -2.6133 41.1557 14.9379 0.0000 11.6942 -1.2589 9.8250 7.3381 33.1476 -0.0000 -26.2537 0.6373 3.3886 1.0388 5.5469 -0.0000 -0.0000 -12.8075 25.3268 -5.4842 12.6260 -0.0000 -0.0000 1.3088 -7.4290 0.2994 4.4830 -0.0000 -0.0000 -6.9955 -10.8903 12.5041 11.4866 -0.0000 -0.0000
3.3183 39.6089 -9.0725 0.7958 -4.0582 -3.0710 6.0255 6.3880 3.3797 8.2905 4.8325 -6.0102 -2.2346 11.7680 24.9790 -20.2340 3.4685 -47.3218 -9.3541 -0.0000 28.1392 -0.0718 5.7646 0.7145 32.8623 0.0000 24.3270 13.3700 -24.1929 -21.0416 -34.9106 -2.4360 41.2130 15.0131 -0.0000 11.7393 -1.2448 9.9469 7.1696 33.1476 -0.0000 -26.2537 0.6547 3.3680 1.0385 5.5181 -0.0000 -0.0000 -12.8074 25.3536 -5.4811 12.4335 -0.0000 -0.0000 1.3040 -7.3910 0.2985 4.4911 -0.0000 -0.0000 -6.9949 -10.8935 12.5219 11.4723 -0.0000 -0.0000
3.3198 39.6091 -9.0733 0.7823 -4.0908 -3.0683 6.0563 6.4023 3.3774 8.2896 4.8326 -6.0209 -2.2549 11.7596 24.9701 -20.2372 3.4706 -47.3202 -9.3546 0.0000 28.1498 -0.0737 5.7852 0.7314 32.8623 0.0000 24.3270 13.3853 -24.1835 -21.0257 -34.6906 -2.3379 41.2907 15.1823 -0.0000 11.7212 -1.2309 9.7487 7.2318 33.1476 -0.0000 -26.2537 0.6501 3.4270 1.0323 5.5615 -0.0000 -0.0000 -12.8206 25.3464 -5.4735 12.5934 -0.0000 -0.0000 1.3035 -7.3587 0.2899 4.5033 -0.0000 -0.0000 -6.9888 -10.8815 12.5183 11.4397 -0.0000 -0.0000
3.3209 39.6092 -9.0749 0.7756 -4.1170 -3.0713 6.0762 6.4100 3.3836 8.2962 4.8157 -6.0261 -2.2510 11.7573 24.9574 -20.2716 3.4794 -47.3226 -9.3527 -0.0000 28.1661 -0.0757 5.7824 0.7509 32.8623 0.0000 24.3270 13.4451 -24.1971 -20.9935 -34.5089 -2.1938 41.3948 15.3000 0.0000 11.6660 -1.2168 9.6616 7.2129 33.1476 -0.0000 -26.2537 0.6497 3.4316 1.0326 5.5754 -0.0000 -0.0000 -12.8265 25.3691 -5.4802 12.5642 -0.0000 -0.0000 1.3041 -7.3297 0.2887 4.5024 -0.0000 -0.0000 -6.9857 -10.8816 12.5431 11.4753 -0.0000 -0.0000
3.3220 39.6092 -9.0753 0.7590 -4.1528 -3.0752 6.1067 6.4054 3.3898 8.3130 4.8219 -6.0409 -2.2485 11.7637 24.9470 -20.3069 3.5169 -47.3220 -9.3582 0.0000 28.2205 -0.0766 5.7596 0.7633 32.8623 0.0000 24.3270 13.4601 -24.1644 -20.9747 -34.2502 -2.0451 41.4681 15.4389 -0.0000 11.6606 -1.2075 9.6397 7.1746 33.1476 -0.0000 -26.2537 0.6681 3.4505 1.0331 5.5745 -0.0000 -0.0000 -12.8339 25.3888 -5.4851 12.6196 -0.0000 -0.0000 1.3149 -7.2817 0.2871 4.5005 -0.0000 -0.0000 -6.9735 -10.8814 12.5687 11.4490 -0.0000 -0.0000
3.3242 39.6088 -9.0770 0.7492 -4.1871 -3.0731 6.1348 6.4141 3.3912 8.3232 4.8312 -6.0647 -2.2622 11.7512 24.9451 -20.3139 3.5254 -47.3320 -9.3493 0.0000 28.2344 -0.0787 5.7381 0.7873 32.8623 0.0000 24.3270 13.4896 -24.1590 -20.9481 -33.9259 -1.8178 41.5535 15.5903 0.0000 11.5150 -1.1846 9.5688 7.0908 33.1476 -0.0000 -26.2537 0.6824 3.4331 1.0241 5.5686 -0.0000 -0.0000 -12.8405 25.4376 -5.4649 12.6199 -0.0000 -0.0000 1.3050 -7.2671 0.2771 4.5211 -0.0000 -0.0000 -6.9854 -10.8455 12.5363 11.4591 -0.0000 -0.0000
3.3259 39.6091 -9.0786 0.7414 -4.2236 -3.0709 6.1619 6.4221 3.3887 8.3273 4.8326 -6.0778 -2.2685 11.7497 24.9280 -20.3404 3.5206 -47.3260 -9.3494 0.0000 28.2102 -0.0830 5.7442 0.8289 32.8623 0.0000 24.3270 13.5225 -24.1448 -20.9044 -33.6007 -1.6146 41.6404 15.7864 0.0000 11.5862 -1.1716 9.5433 7.0321 33.1476 -0.0000 -26.2537 0.6734 3.4880 1.0206 5.6018 -0.0000 -0.0000 -12.8530 25.4217 -5.4883 12.6534 -0.0000 -0.0000 1.2991 -7.2239 0.2682 4.5315 -0.0000 -0.0000 -6.9754 -10.8414 12.5702 11.4181 -0.0000 -0.0000
3.3274 39.6091 -9.0808 0.7325 -4.2578 -3.0739 6.1933 6.4185 3.3956 8.3361 4.8354 -6.1052 -2.2880 11.7376 24.9058 -20.3471 3.5480 -47.3046 -9.3821 -0.0000 28.2539 -0.0772 5.7555 0.7700 32.8623 0.0000 24.3270 13.5683 -24.1419 -20.8699 -33.3382 -1.4246 41.7589 15.9359 0.0000 11.6742 -1.1783 9.6238 7.0140 33.1476 -0.0000 -26.2537 0.6708 3.5185 1.0207 5.6213 -0.0000 -0.0000 -12.8542 25.4290 -5.4730 12.5879 -0.0000 -0.0000 1.2988 -7.1664 0.2661 4.5307 -0.0000 -0.0000 -6.9683 -10.8535 12.5878 11.4459 -0.0000 -0.0000
3.3287 39.6092 -9.0827 0.7224 -4.2969 -3.0746 6.2254 6.4206 3.3995 8.3459 4.8265 -6.1314 -2.2819 11.7515 24.8856 -20.4064 3.5647 -47.3119 -9.3951 -0.0000 28.1717 -0.0837 5.8013 0.8282 32.8623 0.0000 24.3270 13.5967 -24.1010 -20.8399 -32.8023 -1.0923 41.8270 16.2057 -0.0000 11.6217 -1.1471 9.4567 6.9481 33.1476 -0.0000 -26.2537 0.6776 3.5455 1.0180 5.6275 -0.0000 -0.0000 -12.8630 25.4458 -5.4821 12.6420 -0.0000 -0.0000 1.2993 -7.1083 0.2605 4.5317 -0.0000 -0.0000 -6.9642 -10.8505 12.5825 11.4356 -0.0000 -0.0000
